<?xml version="1.0" encoding="utf-8"?>
<!-- Generator: Adobe Illustrator 27.9.0, SVG Export Plug-In . SVG Version: 6.00 Build 0)  -->
<svg version="1.1" id="Layer_1" xmlns="http://www.w3.org/2000/svg" xmlns:xlink="http://www.w3.org/1999/xlink" x="0px" y="0px"
	 viewBox="0 0 455 106" style="enable-background:new 0 0 455 106;" xml:space="preserve">
<style type="text/css">
	.st0{fill:#FF7904;}
</style>
<path d="M125.6,86.1c-12.1,0-18.3-4.7-18.9-14.2h9.8c0.3,2.6,1.1,4.4,2.5,5.4c1.4,1.1,3.7,1.6,6.7,1.6c5.4,0,8.2-1.7,8.2-5
	c0-1.5-0.6-2.6-1.8-3.4c-1.2-0.8-3.3-1.5-6.3-2l-4.7-0.8c-9-1.5-13.5-5.7-13.5-12.5c0-3.9,1.5-6.9,4.5-9.1c3-2.2,7.2-3.4,12.6-3.4
	c11.8,0,17.9,4.7,18.2,14h-9.5c-0.1-2.5-0.9-4.2-2.3-5.2c-1.4-1.1-3.6-1.6-6.4-1.6c-4.8,0-7.2,1.6-7.2,4.8c0,1.4,0.5,2.5,1.6,3.3
	c1.1,0.7,2.8,1.3,5.3,1.8l5.2,0.8c5,0.9,8.6,2.3,10.9,4.3c2.3,2,3.4,4.7,3.4,8.2c0,4.2-1.6,7.4-4.8,9.6
	C135.9,85,131.4,86.1,125.6,86.1z"/>
<path d="M183.7,48.6c-3.8-3.9-8.9-5.8-15.2-5.8c-6.3,0-11.4,2-15.2,5.9c-3.9,3.9-5.8,9.1-5.8,15.7s1.9,11.8,5.8,15.7
	c3.8,3.9,8.9,5.9,15.2,5.9c6.3,0,11.4-2,15.2-5.9c3.8-3.9,5.8-9.2,5.8-15.7C189.4,57.7,187.5,52.5,183.7,48.6z M176.3,74.2
	c-1.9,2.3-4.5,3.4-7.8,3.4s-6-1.1-7.9-3.4c-1.9-2.3-2.8-5.6-2.8-9.8c0-4.3,0.9-7.5,2.8-9.8c1.9-2.3,4.6-3.4,7.9-3.4s6,1.2,7.8,3.5
	c1.9,2.3,2.9,5.5,2.9,9.8C179.2,68.6,178.2,71.9,176.3,74.2z"/>
<path d="M231.6,86c-6.1,0-11-2-14.8-5.9c-3.7-3.9-5.6-9.1-5.6-15.7c0-6.6,1.9-11.9,5.6-15.8c3.7-3.9,8.6-5.8,14.8-5.8
	c5.4,0,9.8,1.4,13.2,4.3c3.4,2.8,5.4,6.7,6,11.5h-10.1c-0.5-2.4-1.5-4.2-3.1-5.5c-1.6-1.3-3.6-1.9-6-1.9c-3.1,0-5.6,1.1-7.4,3.4
	c-1.8,2.2-2.6,5.5-2.6,9.8s0.9,7.5,2.7,9.8c1.8,2.2,4.3,3.4,7.4,3.4c2.5,0,4.5-0.7,6.2-2c1.7-1.4,2.7-3.4,3.1-5.9h10.1
	c-0.5,5-2.6,8.9-6.1,11.9C241.3,84.5,236.9,86,231.6,86z"/>
<path d="M283.5,66.8V43.7h10.1V85h-9.8v-6c-3.1,4.6-7.5,7-13,7c-4.4,0-7.9-1.3-10.6-3.8c-2.6-2.6-3.8-6.3-3.8-11V43.7h10.1v25.7
	c0,5.2,2.6,7.8,7.8,7.8c2.6,0,4.7-0.9,6.5-2.7C282.6,72.7,283.5,70.1,283.5,66.8z"/>
<polygon points="341.4,85 329.9,85 317.9,65.8 311.7,72 311.7,85 301.8,85 301.8,28 311.7,28 311.7,60.8 328.5,43.7 340.5,43.7 
	324.9,59.3 "/>
<path d="M379.2,77.2v-22c0-8.3-5.7-12.4-17.2-12.4c-11.8,0-18,4.7-18.6,14.1h9.9c0.2-2.4,1-4.1,2.2-5c1.3-1,3.4-1.5,6.3-1.5
	c2.7,0,4.6,0.4,5.8,1.3c1.2,0.8,1.8,2.1,1.8,3.8c0,1.4-0.5,2.5-1.4,3.3c-0.9,0.7-2.4,1.2-4.5,1.4l-6.2,0.6
	c-10.6,1.1-15.8,5.4-15.8,12.9c0,3.9,1.3,6.9,4,9.1c2.7,2.2,6.3,3.3,10.9,3.3c6.1,0,10.5-2,13.3-6c0.3,2.5,0.6,4.2,1.1,5h10.1
	C379.7,83.4,379.2,80.8,379.2,77.2z M369.4,68.7c0,3.3-1,5.8-3,7.5c-2,1.7-4.5,2.6-7.7,2.6c-2.2,0-4-0.5-5.2-1.4
	c-1.2-1-1.8-2.4-1.8-4.2c0-1.8,0.6-3.1,1.7-4c1.2-1,3.1-1.6,5.8-1.9l5.4-0.6c2.2-0.3,3.8-0.8,4.7-1.7V68.7z"/>
<rect x="386.6" y="43.7" width="10.1" height="41.3"/>
<path class="st0" d="M201.1,84c-1.8,0-3.2-0.6-4.4-1.7c-1.1-1.2-1.7-2.6-1.7-4.3s0.6-3.1,1.7-4.2c1.2-1.2,2.6-1.8,4.4-1.8
	c1.7,0,3.1,0.6,4.3,1.8c1.1,1.1,1.7,2.5,1.7,4.2s-0.6,3.1-1.7,4.3C204.2,83.4,202.8,84,201.1,84z"/>
<path class="st0" d="M57,31c0-9.9,8.1-18,18-18s18,8.1,18,18s-8.1,18-18,18S57,40.9,57,31z"/>
<path d="M76.1,57v13c0,5.7,0,9.8-0.3,13c-0.3,3.1-0.8,5-1.5,6.5c-1.5,2.9-3.9,5.3-6.8,6.8C66,97,64.1,97.5,61,97.7
	C57.8,98,53.8,98,48,98h-12c-5.7,0-9.8,0-13-0.3c-3.1-0.3-5-0.8-6.5-1.5c-2.9-1.5-5.3-3.9-6.8-6.8C9,87.9,8.5,86,8.3,82.9
	C8,79.7,8,75.7,8,69.9V58c0-5.7,0-9.8,0.3-13c0.3-3.1,0.8-5,1.5-6.5c1.5-2.9,3.9-5.3,6.8-6.8c1.5-0.8,3.4-1.3,6.5-1.5
	c3.2-0.3,7.2-0.3,13-0.3h13c0.1-2.8,0.7-5.5,1.6-8H35.9c-5.5,0-9.9,0-13.5,0.3c-3.6,0.3-6.7,0.9-9.5,2.4C8.5,26.9,5,30.4,2.7,34.8
	c-1.5,2.8-2.1,5.9-2.4,9.5C0,47.9,0,52.3,0,57.8v12.3c0,5.5,0,9.9,0.3,13.5c0.3,3.6,0.9,6.7,2.4,9.5c2.3,4.4,5.8,7.9,10.2,10.2
	c2.8,1.5,5.9,2.1,9.5,2.4c3.5,0.3,7.9,0.3,13.5,0.3h12.3c5.5,0,9.9,0,13.5-0.3c3.6-0.3,6.7-0.9,9.5-2.4c4.4-2.3,7.9-5.8,10.2-10.2
	c1.5-2.8,2.1-5.9,2.4-9.5c0.3-3.5,0.3-7.9,0.3-13.5V55.4C81.6,56.3,78.9,56.9,76.1,57z"/>
<path class="st0" d="M391.7,37c-1.8,0-3.2-0.6-4.4-1.7c-1.1-1.2-1.7-2.6-1.7-4.3s0.6-3.1,1.7-4.2c1.2-1.2,2.6-1.8,4.4-1.8
	c1.7,0,3.1,0.6,4.3,1.8c1.1,1.1,1.7,2.5,1.7,4.2s-0.6,3.1-1.7,4.3C394.9,36.4,393.4,37,391.7,37z"/>
<path class="st0" d="M42.3,86C30.3,86,24,81.3,23.4,71.8h9.8c0.3,2.6,1.1,4.4,2.5,5.4c1.4,1.1,3.7,1.6,6.7,1.6c5.4,0,8.2-1.7,8.2-5
	c0-1.5-0.6-2.6-1.8-3.4c-1.2-0.8-3.3-1.5-6.3-2l-4.7-0.8c-9-1.5-13.5-5.7-13.5-12.5c0-3.9,1.5-6.9,4.5-9.1c3-2.2,7.2-3.4,12.6-3.4
	c11.8,0,17.9,4.7,18.2,14h-9.5c-0.1-2.5-0.9-4.2-2.3-5.2c-1.4-1.1-3.6-1.6-6.4-1.6c-4.8,0-7.2,1.6-7.2,4.8c0,1.4,0.5,2.5,1.6,3.3
	c1.1,0.7,2.8,1.3,5.3,1.8l5.2,0.8c5,0.9,8.6,2.3,10.9,4.3c2.3,2,3.4,4.7,3.4,8.2c0,4.2-1.6,7.4-4.8,9.6C52.6,84.9,48.1,86,42.3,86z"
	/>
</svg>
